<?xml version="1.0" standalone="no"?>
<!DOCTYPE svg PUBLIC "-//W3C//DTD SVG 20010904//EN"
 "http://www.w3.org/TR/2001/REC-SVG-20010904/DTD/svg10.dtd">
<svg version="1.0" xmlns="http://www.w3.org/2000/svg"
 width="510.000000pt" height="916.000000pt" viewBox="0 0 510.000000 916.000000"
 preserveAspectRatio="xMidYMid meet">

<g transform="translate(0.000000,916.000000) scale(0.100000,-0.100000)"
fill="#000000" stroke="none">
<path d="M2305 9042 c-61 -28 -91 -71 -110 -154 -76 -333 -56 -584 70 -902 25
-65 43 -122 38 -126 -14 -13 -236 -168 -478 -335 -126 -87 -293 -206 -370
-264 -77 -59 -146 -110 -152 -114 -8 -5 -40 16 -86 56 -172 150 -384 262 -412
216 -14 -21 7 -60 63 -121 81 -88 100 -117 117 -186 17 -66 10 -188 -20 -346
-32 -165 -12 -333 54 -464 68 -135 278 -343 415 -412 129 -65 206 -19 206 124
l0 64 68 -29 c177 -74 347 -57 557 55 l82 43 7 -96 c3 -53 6 -163 6 -246 0
-431 68 -1172 126 -1375 29 -100 65 -150 109 -150 37 0 52 39 85 232 72 419
84 602 96 1406 l7 493 111 54 c166 80 358 135 469 135 75 0 122 16 152 52 24
28 27 39 23 88 -2 35 -16 81 -36 124 l-32 69 24 42 c91 154 357 438 461 491
137 69 165 179 96 365 -26 68 -121 213 -189 290 -97 108 -249 159 -473 159
-171 0 -390 -44 -502 -102 -22 -11 -41 -18 -43 -16 -2 2 2 49 7 103 13 115 6
265 -15 345 -27 104 -114 270 -173 328 -103 103 -262 149 -358 104z m29 -275
c31 -23 41 -154 27 -356 -7 -97 -16 -194 -20 -216 l-7 -40 -22 70 c-56 184
-76 288 -76 400 0 126 10 155 52 155 16 0 36 -6 46 -13z m1216 -849 c61 -23
74 -64 45 -135 -22 -52 -198 -296 -370 -510 -151 -190 -189 -223 -255 -223
-45 0 -100 26 -142 68 l-38 36 0 136 c0 190 17 420 32 438 58 70 338 180 513
201 75 10 174 4 215 -11z m-1197 -831 l6 -307 -82 -66 c-133 -105 -324 -229
-438 -284 -112 -53 -263 -98 -292 -87 -15 6 -17 24 -17 161 l0 154 35 44 c47
56 94 100 378 344 131 113 275 239 319 279 45 41 83 73 84 72 0 -1 4 -140 7
-310z"/>
<path d="M2084 3972 c-41 -27 -40 -91 2 -174 129 -254 30 -654 -249 -1001
-141 -176 -143 -261 -9 -459 108 -158 167 -208 249 -208 104 0 349 126 640
328 54 38 104 72 112 77 12 7 13 -9 8 -101 -7 -130 -26 -242 -72 -424 -33
-134 -80 -277 -95 -293 -4 -5 -70 11 -146 36 -323 105 -820 248 -934 268 -107
19 -309 17 -390 -4 -147 -39 -270 -122 -354 -240 -42 -60 -50 -76 -47 -106 2
-21 42 -6 128 49 148 95 307 138 467 127 169 -12 307 -65 511 -198 147 -95
291 -169 465 -240 58 -23 109 -46 114 -50 15 -13 -153 -171 -237 -223 -87 -54
-250 -123 -379 -160 -329 -95 -708 -84 -934 26 -38 18 -98 61 -136 96 -89 81
-134 83 -120 6 6 -36 86 -128 158 -182 84 -63 239 -141 354 -177 596 -186
1290 -51 1671 325 l78 78 108 -67 c249 -154 439 -290 598 -427 226 -195 859
-559 972 -559 37 0 49 5 70 30 24 27 25 34 20 110 -15 224 -159 513 -338 680
-70 65 -123 95 -269 151 -89 34 -292 129 -761 354 l-196 94 25 76 c41 130 62
258 69 420 6 172 -5 271 -36 328 -80 145 -116 228 -135 314 -6 26 -2 30 75 68
177 90 387 164 645 230 273 69 364 143 309 249 -40 79 -233 171 -418 201 -98
15 -150 -1 -418 -129 -269 -128 -450 -229 -637 -354 -75 -51 -141 -94 -146
-96 -5 -2 12 25 38 60 71 99 230 347 265 415 60 119 36 227 -77 339 -72 72
-240 184 -413 274 -128 67 -177 82 -205 63z"/>
</g>
</svg>
